<mxfile host="app.diagrams.net" agent="Mozilla/5.0 (Windows NT 10.0; Win64; x64) AppleWebKit/537.36 (KHTML, like Gecko) Chrome/134.0.0.0 Safari/537.36 OPR/119.0.0.0" version="27.1.5">
  <diagram id="C5RBs43oDa-KdzZeNtuy" name="Page-1">
    <mxGraphModel dx="1611" dy="778" grid="1" gridSize="10" guides="1" tooltips="1" connect="1" arrows="1" fold="1" page="1" pageScale="1" pageWidth="827" pageHeight="1169" math="0" shadow="0">
      <root>
        <mxCell id="WIyWlLk6GJQsqaUBKTNV-0" />
        <mxCell id="WIyWlLk6GJQsqaUBKTNV-1" parent="WIyWlLk6GJQsqaUBKTNV-0" />
        <mxCell id="jeo_Ibsb2QltjxXlVEwW-3" style="edgeStyle=orthogonalEdgeStyle;rounded=0;orthogonalLoop=1;jettySize=auto;html=1;" edge="1" parent="WIyWlLk6GJQsqaUBKTNV-1" source="jeo_Ibsb2QltjxXlVEwW-0" target="jeo_Ibsb2QltjxXlVEwW-1">
          <mxGeometry relative="1" as="geometry" />
        </mxCell>
        <mxCell id="jeo_Ibsb2QltjxXlVEwW-0" value="Reservation Management" style="rounded=1;whiteSpace=wrap;html=1;" vertex="1" parent="WIyWlLk6GJQsqaUBKTNV-1">
          <mxGeometry x="340" y="30" width="120" height="60" as="geometry" />
        </mxCell>
        <mxCell id="jeo_Ibsb2QltjxXlVEwW-4" style="edgeStyle=orthogonalEdgeStyle;rounded=0;orthogonalLoop=1;jettySize=auto;html=1;" edge="1" parent="WIyWlLk6GJQsqaUBKTNV-1" source="jeo_Ibsb2QltjxXlVEwW-1" target="jeo_Ibsb2QltjxXlVEwW-2">
          <mxGeometry relative="1" as="geometry" />
        </mxCell>
        <mxCell id="jeo_Ibsb2QltjxXlVEwW-1" value="Check Reservation List" style="shape=parallelogram;perimeter=parallelogramPerimeter;whiteSpace=wrap;html=1;fixedSize=1;size=-40;" vertex="1" parent="WIyWlLk6GJQsqaUBKTNV-1">
          <mxGeometry x="310" y="180" width="180" height="60" as="geometry" />
        </mxCell>
        <mxCell id="jeo_Ibsb2QltjxXlVEwW-9" style="edgeStyle=orthogonalEdgeStyle;rounded=0;orthogonalLoop=1;jettySize=auto;html=1;entryX=0;entryY=0.25;entryDx=0;entryDy=0;" edge="1" parent="WIyWlLk6GJQsqaUBKTNV-1" source="jeo_Ibsb2QltjxXlVEwW-2" target="jeo_Ibsb2QltjxXlVEwW-8">
          <mxGeometry relative="1" as="geometry" />
        </mxCell>
        <mxCell id="jeo_Ibsb2QltjxXlVEwW-11" value="No" style="edgeLabel;html=1;align=center;verticalAlign=middle;resizable=0;points=[];" vertex="1" connectable="0" parent="jeo_Ibsb2QltjxXlVEwW-9">
          <mxGeometry x="-0.1035" y="-3" relative="1" as="geometry">
            <mxPoint as="offset" />
          </mxGeometry>
        </mxCell>
        <mxCell id="jeo_Ibsb2QltjxXlVEwW-10" style="edgeStyle=orthogonalEdgeStyle;rounded=0;orthogonalLoop=1;jettySize=auto;html=1;" edge="1" parent="WIyWlLk6GJQsqaUBKTNV-1" source="jeo_Ibsb2QltjxXlVEwW-2" target="jeo_Ibsb2QltjxXlVEwW-7">
          <mxGeometry relative="1" as="geometry" />
        </mxCell>
        <mxCell id="jeo_Ibsb2QltjxXlVEwW-12" value="Yes" style="edgeLabel;html=1;align=center;verticalAlign=middle;resizable=0;points=[];" vertex="1" connectable="0" parent="jeo_Ibsb2QltjxXlVEwW-10">
          <mxGeometry x="0.1048" y="2" relative="1" as="geometry">
            <mxPoint as="offset" />
          </mxGeometry>
        </mxCell>
        <mxCell id="jeo_Ibsb2QltjxXlVEwW-2" value="Accept" style="rhombus;whiteSpace=wrap;html=1;" vertex="1" parent="WIyWlLk6GJQsqaUBKTNV-1">
          <mxGeometry x="360" y="320" width="80" height="80" as="geometry" />
        </mxCell>
        <mxCell id="jeo_Ibsb2QltjxXlVEwW-17" value="" style="edgeStyle=orthogonalEdgeStyle;rounded=0;orthogonalLoop=1;jettySize=auto;html=1;" edge="1" parent="WIyWlLk6GJQsqaUBKTNV-1" source="jeo_Ibsb2QltjxXlVEwW-7" target="jeo_Ibsb2QltjxXlVEwW-13">
          <mxGeometry relative="1" as="geometry" />
        </mxCell>
        <mxCell id="jeo_Ibsb2QltjxXlVEwW-7" value="Send Confirmation Message" style="shape=parallelogram;perimeter=parallelogramPerimeter;whiteSpace=wrap;html=1;fixedSize=1;size=-35;" vertex="1" parent="WIyWlLk6GJQsqaUBKTNV-1">
          <mxGeometry x="325" y="500" width="150" height="60" as="geometry" />
        </mxCell>
        <mxCell id="jeo_Ibsb2QltjxXlVEwW-8" value="Send Reject&amp;nbsp;&lt;span style=&quot;background-color: transparent; color: light-dark(rgb(0, 0, 0), rgb(255, 255, 255));&quot;&gt;Message&lt;/span&gt;" style="shape=parallelogram;perimeter=parallelogramPerimeter;whiteSpace=wrap;html=1;fixedSize=1;size=-20;" vertex="1" parent="WIyWlLk6GJQsqaUBKTNV-1">
          <mxGeometry x="530" y="350" width="190" height="60" as="geometry" />
        </mxCell>
        <mxCell id="jeo_Ibsb2QltjxXlVEwW-15" style="edgeStyle=orthogonalEdgeStyle;rounded=0;orthogonalLoop=1;jettySize=auto;html=1;exitX=0.074;exitY=0.5;exitDx=0;exitDy=0;exitPerimeter=0;" edge="1" parent="WIyWlLk6GJQsqaUBKTNV-1" source="jeo_Ibsb2QltjxXlVEwW-13">
          <mxGeometry relative="1" as="geometry">
            <mxPoint x="400" y="260" as="targetPoint" />
            <Array as="points">
              <mxPoint x="150" y="625" />
              <mxPoint x="150" y="260" />
            </Array>
          </mxGeometry>
        </mxCell>
        <mxCell id="jeo_Ibsb2QltjxXlVEwW-19" value="Yes" style="edgeLabel;html=1;align=center;verticalAlign=middle;resizable=0;points=[];" vertex="1" connectable="0" parent="jeo_Ibsb2QltjxXlVEwW-15">
          <mxGeometry x="-0.6267" y="5" relative="1" as="geometry">
            <mxPoint as="offset" />
          </mxGeometry>
        </mxCell>
        <mxCell id="jeo_Ibsb2QltjxXlVEwW-23" style="edgeStyle=orthogonalEdgeStyle;rounded=0;orthogonalLoop=1;jettySize=auto;html=1;entryX=0.5;entryY=0;entryDx=0;entryDy=0;" edge="1" parent="WIyWlLk6GJQsqaUBKTNV-1" source="jeo_Ibsb2QltjxXlVEwW-13" target="jeo_Ibsb2QltjxXlVEwW-22">
          <mxGeometry relative="1" as="geometry" />
        </mxCell>
        <mxCell id="jeo_Ibsb2QltjxXlVEwW-24" value="No" style="edgeLabel;html=1;align=center;verticalAlign=middle;resizable=0;points=[];" vertex="1" connectable="0" parent="jeo_Ibsb2QltjxXlVEwW-23">
          <mxGeometry x="0.2686" y="-2" relative="1" as="geometry">
            <mxPoint as="offset" />
          </mxGeometry>
        </mxCell>
        <mxCell id="jeo_Ibsb2QltjxXlVEwW-13" value="More Request" style="rhombus;whiteSpace=wrap;html=1;" vertex="1" parent="WIyWlLk6GJQsqaUBKTNV-1">
          <mxGeometry x="332.5" y="600" width="135" height="80" as="geometry" />
        </mxCell>
        <mxCell id="jeo_Ibsb2QltjxXlVEwW-22" value="Show message that says no more request" style="ellipse;whiteSpace=wrap;html=1;" vertex="1" parent="WIyWlLk6GJQsqaUBKTNV-1">
          <mxGeometry x="332.5" y="760" width="150" height="50" as="geometry" />
        </mxCell>
      </root>
    </mxGraphModel>
  </diagram>
</mxfile>
